<?xml version="1.0" encoding="UTF-8" standalone="no"?>
<!-- Created with Inkscape (http://www.inkscape.org/) -->

<svg
   xmlns:dc="http://purl.org/dc/elements/1.1/"
   xmlns:cc="http://creativecommons.org/ns#"
   xmlns:rdf="http://www.w3.org/1999/02/22-rdf-syntax-ns#"
   xmlns:svg="http://www.w3.org/2000/svg"
   xmlns="http://www.w3.org/2000/svg"
   xmlns:sodipodi="http://sodipodi.sourceforge.net/DTD/sodipodi-0.dtd"
   xmlns:inkscape="http://www.inkscape.org/namespaces/inkscape"
   width="600"
   height="200"
   id="svg2"
   version="1.1"
   inkscape:version="0.48.4 r9939"
   sodipodi:docname="reso1.svg"
   inkscape:export-filename="/home/edhelas/Documents/Cours/Polytech/2013-2014/Stage Utrecht/img/reso1.png"
   inkscape:export-xdpi="90"
   inkscape:export-ydpi="90">
  <defs
     id="defs4" />
  <sodipodi:namedview
     id="base"
     pagecolor="#ffffff"
     bordercolor="#666666"
     borderopacity="1.0"
     inkscape:pageopacity="0.0"
     inkscape:pageshadow="2"
     inkscape:zoom="1.9436598"
     inkscape:cx="298.7749"
     inkscape:cy="44.79127"
     inkscape:document-units="px"
     inkscape:current-layer="layer1"
     showgrid="true"
     width="600px"
     inkscape:window-width="1326"
     inkscape:window-height="1124"
     inkscape:window-x="592"
     inkscape:window-y="30"
     inkscape:window-maximized="0"
     showguides="true"
     inkscape:guide-bbox="true"
     inkscape:snap-global="true">
    <inkscape:grid
       type="xygrid"
       id="grid2985"
       empspacing="5"
       visible="true"
       enabled="true"
       snapvisiblegridlinesonly="true" />
    <sodipodi:guide
       orientation="1,0"
       position="200,-75"
       id="guide3076" />
    <sodipodi:guide
       orientation="1,0"
       position="400,-45"
       id="guide3078" />
  </sodipodi:namedview>
  <metadata
     id="metadata7">
    <rdf:RDF>
      <cc:Work
         rdf:about="">
        <dc:format>image/svg+xml</dc:format>
        <dc:type
           rdf:resource="http://purl.org/dc/dcmitype/StillImage" />
        <dc:title></dc:title>
      </cc:Work>
    </rdf:RDF>
  </metadata>
  <g
     inkscape:label="Calque 1"
     inkscape:groupmode="layer"
     id="layer1"
     transform="translate(0,-852.36218)">
    <path
       style="fill:#000000;stroke:none;stroke-width:1px;stroke-linecap:butt;stroke-linejoin:miter;stroke-opacity:1;fill-opacity:1"
       d="m 580,90 0,20 -10,0 0,10 -10,0 0,10 -10,0 0,10 -10,0 0,10 -10,0 0,10 -10,0 0,10 -10,0 0,10 -20,0 0,-10 -10,0 0,-10 -10,0 0,-10 -10,0 0,-10 -10,0 0,-10 -10,0 0,-10 -10,0 0,-10 -10,0 0,-20 10,0 0,-10 10,0 0,-10 10,0 0,-10 10,0 0,-10 10,0 0,-10 10,0 0,-10 10,0 0,-10 20,0 0,10 10,0 0,10 10,0 0,10 10,0 0,10 10,0 0,10 10,0 0,10 10,0 0,10 z"
       id="path3971"
       inkscape:connector-curvature="0"
       transform="translate(0,852.36218)" />
    <path
       style="fill:#000000;stroke:#000000;stroke-width:1px;stroke-linecap:butt;stroke-linejoin:miter;stroke-opacity:1;fill-opacity:1"
       d="m 80,20 40,0 0,20 20,0 0,20 20,0 0,20 20,0 0,40 -20,0 0,20 -20,0 0,20 -20,0 0,20 -40,0 0,-20 -20,0 0,-20 -20,0 0,-20 -20,0 0,-40 20,0 0,-20 20,0 0,-20 20,0 z"
       id="path3868"
       inkscape:connector-curvature="0"
       transform="translate(0,852.36218)" />
    <path
       style="fill:#000000;fill-opacity:1;stroke:#000000;stroke-width:1px;stroke-linecap:butt;stroke-linejoin:miter;stroke-opacity:1"
       d="m 280.55559,872.8417 40,0 0,20 20,0 0,20 20,0 0,20 20,0 0,40 -20,0 0,20.00002 -20,0 0,20.00018 -20,0 0,20 -40,0 0,-20 -20,0 0,-20.00018 -20,0 0,-20.00002 -20,0 0,-40 20,0 0,-20 20,0 0,-20 20,0 z"
       id="path3868-2"
       inkscape:connector-curvature="0" />
    <path
       d="m 400.02166,852.47196 0,201.50004 m 10,-201.50004 0,201.50004 m 10,-201.50004 0,201.50004 m 10,-201.50004 0,201.50004 m 10,-201.50004 0,201.50004 m 10,-201.50004 0,201.50004 m 10,-201.50004 0,201.50004 m 10,-201.50004 0,201.50004 m 10,-201.50004 0,201.50004 m 10,-201.50004 0,201.50004 m 10,-201.50004 0,201.50004 m 10,-201.50004 0,201.50004 m 10,-201.50004 0,201.50004 m 10,-201.50004 0,201.50004 m 10,-201.50004 0,201.50004 m 10,-201.50004 0,201.50004 m 10,-201.50004 0,201.50004 m 10,-201.50004 0,201.50004 m 10,-201.50004 0,201.50004 m 10,-201.50004 0,201.50004 m 10,-201.50004 0,201.50004 m -200,-201.50004 201.5,0 m -201.5,10 201.5,0 m -201.5,10 201.5,0 m -201.5,10 201.5,0 m -201.5,10 201.5,0 m -201.5,10 201.5,0 m -201.5,10 201.5,0 m -201.5,10 201.5,0 m -201.5,10 201.5,0 m -201.5,10 201.5,0 m -201.5,10 201.5,0 m -201.5,10 201.5,0 m -201.5,10 201.5,0 m -201.5,10 201.5,0 m -201.5,10 201.5,0 m -201.5,10.00004 201.5,0 m -201.5,10 201.5,0 m -201.5,10 201.5,0 m -201.5,10 201.5,0 m -201.5,10 201.5,0 m -201.5,10 201.5,0"
       style="fill:none;stroke:#b6b6b6;stroke-width:1pt;stroke-linecap:butt;stroke-linejoin:miter;stroke-opacity:1"
       id="path3092"
       inkscape:connector-curvature="0" />
    <path
       d="m 0.03857092,852.46267 0,201.50003 M 20.038571,852.46267 l 0,201.50003 m 20,-201.50003 0,201.50003 m 20,-201.50003 0,201.50003 m 20,-201.50003 0,201.50003 m 19.999999,-201.50003 0,201.50003 m 20,-201.50003 0,201.50003 m 20,-201.50003 0,201.50003 m 20,-201.50003 0,201.50003 m 20,-201.50003 0,201.50003 m 20,-201.50003 0,201.50003 M 0.03857092,852.46267 l 201.49999908,0 m -201.49999908,20 201.49999908,0 m -201.49999908,20 201.49999908,0 m -201.49999908,20 201.49999908,0 m -201.49999908,20 201.49999908,0 m -201.49999908,20 201.49999908,0 m -201.49999908,20 201.49999908,0 m -201.49999908,20 201.49999908,0 m -201.49999908,20.00003 201.49999908,0 m -201.49999908,20 201.49999908,0 m -201.49999908,20 201.49999908,0"
       style="fill:none;stroke:#b6b6b6;stroke-width:1pt;stroke-linecap:butt;stroke-linejoin:miter;stroke-opacity:1"
       id="path3866"
       inkscape:connector-curvature="0" />
    <path
       d="m 200.09886,852.49139 0,202.74991 m 7.5,-202.74991 0,202.74991 m 7.5,-202.74991 0,202.74991 m 7.5,-202.74991 0,202.74991 m 7.5,-202.74991 0,202.74991 m 7.5,-202.74991 0,202.74991 m 7.5,-202.74991 0,202.74991 m 7.5,-202.74991 0,202.74991 m 7.5,-202.74991 0,202.74991 m 7.5,-202.74991 0,202.74991 m 7.5,-202.74991 0,202.74991 m 7.5,-202.74991 0,202.74991 m 7.5,-202.74991 0,202.74991 m 7.5,-202.74991 0,202.74991 m 7.5,-202.74991 0,202.74991 m 7.5,-202.74991 0,202.74991 m 7.5,-202.74991 0,202.74991 m 7.5,-202.74991 0,202.74991 m 7.5,-202.74991 0,202.74991 m 7.5,-202.74991 0,202.74991 m 7.5,-202.74991 0,202.74991 m 7.5,-202.74991 0,202.74991 m 7.5,-202.74991 0,202.74991 m 7.5,-202.74991 0,202.74991 m 7.5,-202.74991 0,202.74991 m 7.5,-202.74991 0,202.74991 m 7.5,-202.74991 0,202.74991 m 7.5,-202.74991 0,202.74991 m -202.5,-202.74991 202.75,0 m -202.75,7.5 202.75,0 m -202.75,7.5 202.75,0 m -202.75,7.5 202.75,0 m -202.75,7.5 202.75,0 m -202.75,7.5 202.75,0 m -202.75,7.5 202.75,0 m -202.75,7.5 202.75,0 m -202.75,7.5 202.75,0 m -202.75,7.5 202.75,0 m -202.75,7.5 202.75,0 m -202.75,7.5 202.75,0 m -202.75,7.5 202.75,0 m -202.75,7.5 202.75,0 m -202.75,7.5 202.75,0 m -202.75,7.5 202.75,0 m -202.75,7.5 202.75,0 m -202.75,7.5 202.75,0 m -202.75,7.5 202.75,0 m -202.75,7.5 202.75,0 m -202.75,7.49991 202.75,0 m -202.75,7.5 202.75,0 m -202.75,7.5 202.75,0 m -202.75,7.5 202.75,0 m -202.75,7.5 202.75,0 m -202.75,7.5 202.75,0 m -202.75,7.5 202.75,0 m -202.75,7.5 202.75,0"
       style="fill:none;stroke:#b6b6b6;stroke-width:1pt;stroke-linecap:butt;stroke-linejoin:miter;stroke-opacity:1"
       id="path3892"
       inkscape:connector-curvature="0" />
  </g>
</svg>
